<?xml version="1.0" encoding="UTF-8" standalone="no"?>
<svg width="220px" height="50px" viewBox="0 0 220 50" version="1.1" xmlns="http://www.w3.org/2000/svg" xmlns:xlink="http://www.w3.org/1999/xlink">
    <!-- Generator: Sketch 50.2 (55047) - http://www.bohemiancoding.com/sketch -->
    <title>레오1@2x</title>
    <desc>Created with Sketch.</desc>
    <defs>
        <linearGradient x1="0%" y1="50%" x2="125.920377%" y2="50%" id="linearGradient-1">
            <stop stop-color="#17DBF7" offset="0%"></stop>
            <stop stop-color="#7C11F5" offset="100%"></stop>
        </linearGradient>
        <path d="M43.0366935,22.2684474 C43.0366935,24.2509921 42.8117863,26.1293834 42.3619653,27.9036777 C41.9121442,29.6779719 41.2707423,31.3272911 40.4377403,32.8516847 C39.6047383,34.3760783 38.5926561,35.750511 37.4014633,36.9750239 C36.2102704,38.1995368 34.8774872,39.2449386 33.4030737,40.1112607 C31.9286602,40.9775828 30.3209905,41.6439744 28.5800164,42.1104555 C26.8390422,42.5769366 25.0106303,42.8101736 23.0947257,42.8101736 L10,42.8101736 L14.4981882,6.39983895 L27.5929139,6.39983895 C29.9752996,6.39983895 32.1202476,6.80383886 34.0278221,7.61185078 C35.9353966,8.4198627 37.5555612,9.53190367 38.8883644,10.948007 C40.2211675,12.3641104 41.2457446,14.0384193 41.9621263,15.9709839 C42.678508,17.9035485 43.0366935,20.002682 43.0366935,22.2684474 Z M34.6900554,22.4683669 C34.6900554,20.9856234 34.5192925,19.6403453 34.1777617,18.4324925 C33.8362309,17.2246396 33.3281073,16.1958976 32.6533757,15.3462355 C31.9786441,14.4965735 31.1498195,13.8385118 30.1668772,13.3720307 C29.1839349,12.9055496 28.0593991,12.6723125 26.793236,12.6723125 L21.8952089,12.6723125 L18.9963764,36.5377001 L23.8944036,36.5377001 C25.5604076,36.5377001 27.0597887,36.2086692 28.3925918,35.5505976 C29.725395,34.8925261 30.8582607,33.9554129 31.791223,32.73923 C32.7241852,31.5230471 33.4405561,30.0486557 33.9403573,28.3160116 C34.4401585,26.5833674 34.6900554,24.634172 34.6900554,22.4683669 Z M62.21508,12.6723125 L61.1405128,21.4687695 L71.4363659,21.4687695 L70.636688,27.5163337 L60.3908148,27.5163337 L59.2662677,36.5377001 L72.8358022,36.5377001 L72.0361243,42.8101736 L50.2948812,42.8101736 L54.7930695,6.39983895 L76.4843327,6.39983895 L75.6846548,12.6723125 L62.21508,12.6723125 Z M116.854184,6.39983895 L98.9613905,42.8101736 L91.5643699,42.8101736 L82.6179733,6.39983895 L89.1653362,6.39983895 C89.8650579,6.39983895 90.4231608,6.56643685 90.8396618,6.89963764 C91.2561628,7.23283844 91.5143895,7.65766308 91.6143498,8.17412431 L95.4128198,28.2410418 C95.6294003,29.0407237 95.8293178,29.9278575 96.0125783,30.9024698 C96.1958387,31.8770821 96.3541067,32.8891644 96.487387,33.9387469 C96.8539079,32.8891644 97.2329181,31.8770821 97.624429,30.9024698 C98.01594,29.9278575 98.4282698,29.0407237 98.8614308,28.2410418 L107.358009,8.17412431 C107.457969,7.95754379 107.603742,7.74096653 107.795332,7.52438601 C107.986923,7.30780549 108.207665,7.11621791 108.457566,6.94961751 C108.707466,6.78301712 108.986518,6.6497388 109.294728,6.54977856 C109.602939,6.44981832 109.92364,6.39983895 110.256841,6.39983895 L116.854184,6.39983895 Z M154.600092,22.2684474 C154.600092,24.2343321 154.371019,26.1168883 153.912868,27.9161726 C153.454717,29.7154569 152.804986,31.3897658 151.963653,32.9391495 C151.122321,34.4885332 150.106074,35.8962854 148.914881,37.1624484 C147.723689,38.4286114 146.386741,39.5073328 144.903997,40.3986449 C143.421253,41.2899571 141.813584,41.9813383 140.08094,42.4728095 C138.348295,42.9642807 136.524048,43.2100126 134.608144,43.2100126 C132.209098,43.2100126 130.05582,42.7893529 128.148246,41.9480209 C126.240671,41.1066889 124.620507,39.9571634 123.287704,38.4994099 C121.9549,37.0416564 120.934488,35.3256981 120.226437,33.3514834 C119.518385,31.3772687 119.164364,29.2489805 119.164364,26.9665551 C119.164364,25.0006704 119.393436,23.1139492 119.851588,21.3063349 C120.309739,19.4987206 120.95947,17.8202468 121.800802,16.2708631 C122.642134,14.7214794 123.662547,13.3137272 124.862069,12.0475642 C126.061592,10.7814012 127.402705,9.70267976 128.885449,8.81136764 C130.368192,7.92005552 131.975862,7.22867424 133.708506,6.73720307 C135.44115,6.2457319 137.273727,6 139.206292,6 C141.588678,6 143.733626,6.42065969 145.6412,7.2619917 C147.548775,8.1033237 149.164774,9.25701414 150.489247,10.7230976 C151.813721,12.1891811 152.829968,13.9134694 153.538019,15.8960141 C154.246071,17.8785588 154.600092,20.002682 154.600092,22.2684474 Z M146.253453,22.4683669 C146.253453,20.9689633 146.074361,19.6070255 145.71617,18.3825126 C145.357979,17.1579997 144.833196,16.1084329 144.141804,15.2337808 C143.450412,14.3591287 142.604928,13.6844073 141.605326,13.2095961 C140.605723,12.734785 139.472858,12.497383 138.206695,12.497383 C136.540691,12.497383 135.049639,12.8430736 133.733496,13.5344653 C132.417353,14.2258569 131.296982,15.1962897 130.37235,16.4457927 C129.447718,17.6952956 128.739677,19.1988417 128.248206,20.9564758 C127.756734,22.71411 127.511003,24.6591405 127.511003,26.7916256 C127.511003,28.2910291 127.68593,29.648802 128.035791,30.8649849 C128.385652,32.0811678 128.897941,33.1224047 129.572672,33.9887267 C130.247404,34.8550488 131.084558,35.5256053 132.084161,36.0004165 C133.083763,36.4752276 134.224959,36.7126296 135.507782,36.7126296 C137.173786,36.7126296 138.669002,36.3711039 139.993475,35.6880423 C141.317948,35.0049806 142.442484,34.0387128 143.367116,32.7892099 C144.291748,31.5397069 145.003954,30.0403258 145.503755,28.2910216 C146.003557,26.5417175 146.253453,24.600852 146.253453,22.4683669 Z M175.252884,23.5929139 C176.419087,23.5929139 177.410345,23.4138212 178.226686,23.0556303 C179.043028,22.6974395 179.705255,22.2184705 180.213386,21.6187091 C180.721517,21.0189477 181.088033,20.3192365 181.312943,19.5195546 C181.537854,18.7198727 181.650307,17.8785533 181.650307,16.9955712 C181.650307,16.3125096 181.550349,15.6919324 181.350428,15.1338211 C181.150508,14.5757098 180.838137,14.1009057 180.413306,13.7093948 C179.988475,13.3178839 179.455361,13.0138427 178.81395,12.7972622 C178.172538,12.5806817 177.418683,12.4723931 176.552361,12.4723931 L173.653528,12.4723931 L172.279082,23.5929139 L175.252884,23.5929139 Z M177.302059,6.39983895 C179.534504,6.39983895 181.437885,6.63724096 183.012259,7.11205209 C184.586633,7.58686322 185.873601,8.24075997 186.873204,9.07376195 C187.872806,9.90676394 188.601672,10.8938565 189.059823,12.0350692 C189.517974,13.1762819 189.747046,14.4132713 189.747046,15.7460745 C189.747046,17.0788777 189.567954,18.3491866 189.209763,19.5570395 C188.851572,20.7648924 188.330953,21.8727684 187.647892,22.8807008 C186.96483,23.8886332 186.131841,24.779932 185.148898,25.5546238 C184.165956,26.3293157 183.04142,26.9665526 181.775257,27.4663538 C182.275058,27.7495745 182.733203,28.0952651 183.149704,28.5034361 C183.566205,28.9116071 183.91606,29.4072358 184.199281,29.9903372 L189.497147,42.8101736 L182.150106,42.8101736 C181.467045,42.8101736 180.896447,42.6727304 180.438296,42.3978397 C179.980145,42.1229491 179.651114,41.7439388 179.451193,41.2607977 L175.502784,30.4901359 C175.302863,30.0403148 175.052966,29.7154489 174.753086,29.5155284 C174.453205,29.315608 174.003391,29.2156492 173.403629,29.2156492 L171.579364,29.2156492 L169.905038,42.8101736 L161.808299,42.8101736 L166.256508,6.39983895 L177.302059,6.39983895 Z M205.551792,42.8101736 L197.355093,42.8101736 L201.803301,6.39983895 L210,6.39983895 L205.551792,42.8101736 Z" id="path-2"></path>
    </defs>
    <g id="레오1" stroke="none" stroke-width="1" fill="none" fill-rule="evenodd">
        <g id="DEVORI">
            <use fill="#414141" xlink:href="#path-2"></use>
            <use fill="url(#linearGradient-1)" xlink:href="#path-2"></use>
        </g>
    </g>
</svg>